Coordinates
version=1
nRows=17
nColumns=40
inDegrees=yes

Units are S.I. units (second, meters, Newtons, ...)
If the header above contains a line with 'inDegrees', this indicates whether rotational values are in degrees (yes) or radians (no).

endheader
time	pelvis_tilt	pelvis_list	pelvis_rotation	pelvis_tx	pelvis_ty	pelvis_tz	hip_flexion_r	hip_adduction_r	hip_rotation_r	knee_angle_r	knee_angle_r_beta	ankle_angle_r	subtalar_angle_r	mtp_angle_r	hip_flexion_l	hip_adduction_l	hip_rotation_l	knee_angle_l	knee_angle_l_beta	ankle_angle_l	subtalar_angle_l	mtp_angle_l	lumbar_extension	lumbar_bending	lumbar_rotation	arm_flex_r	arm_add_r	arm_rot_r	elbow_flex_r	pro_sup_r	wrist_flex_r	wrist_dev_r	arm_flex_l	arm_add_l	arm_rot_l	elbow_flex_l	pro_sup_l	wrist_flex_l	wrist_dev_l
      4.12500000	    -32.91013231	     -0.38604733	      3.80678433	     -0.38152555	      0.72622380	     -0.73610177	     81.02361499	     -1.43014743	     -8.52902921	     87.10233481	      1.52022253	     26.20658230	      0.00000000	      0.00000000	     36.00817164	     -7.40679283	      5.63370047	     95.78361587	      1.67173947	     -8.55040258	      0.00000000	      0.00000000	      1.15376977	      3.36972661	     -3.51181372	     89.95755574	     -4.31696117	      8.31433664	     51.73410622	     73.69743020	      0.00000000	      0.00000000	     89.93384786	     -6.33507167	      7.02000076	     47.55313021	     76.70253491	      0.00000000	      0.00000000
      4.13000000	    -32.96466927	     -0.35093045	      3.77791878	     -0.38155197	      0.72530146	     -0.73618862	     81.17731766	     -1.37426952	     -8.42367973	     87.27211271	      1.52318571	     26.36477244	      0.00000000	      0.00000000	     36.07165990	     -7.37799428	      5.62692694	     95.88199385	      1.67345649	     -8.58272114	      0.00000000	      0.00000000	      1.18934688	      3.33795579	     -3.48860147	     89.95756108	     -4.32763650	      8.94368184	     52.00457799	     66.97456625	      0.00000000	      0.00000000	     89.93410241	     -6.28563724	      7.58641581	     47.78866512	     69.39806465	      0.00000000	      0.00000000
      4.13500000	    -32.94855312	     -0.37561944	      3.77641390	     -0.38149906	      0.72452348	     -0.73618688	     81.24955735	     -1.35528378	     -8.44323739	     87.43551372	      1.52603760	     26.33462020	      0.00000000	      0.00000000	     36.05779781	     -7.42856300	      5.65733987	     95.95376126	      1.67470906	     -8.59607727	      0.00000000	      0.00000000	      1.14113461	      3.37864607	     -3.54251048	     89.95779511	     -4.23088900	      8.32853253	     51.84021817	     73.50018188	      0.00000000	      0.00000000	     89.93455274	     -6.34467694	      6.90335744	     47.63435884	     76.71217407	      0.00000000	      0.00000000
      4.14000000	    -33.07981415	     -0.38953741	      3.79122883	     -0.38172070	      0.72358999	     -0.73622151	     81.48160400	     -1.30450427	     -8.36128211	     87.57706238	      1.52850809	     26.50389604	      0.00000000	      0.00000000	     36.24573690	     -7.43640048	      5.71651013	     96.06506161	      1.67665162	     -8.57749535	      0.00000000	      0.00000000	      1.24179062	      3.37187985	     -3.52956902	     89.95788518	     -4.30718017	      8.95814342	     52.13094392	     67.17833427	      0.00000000	      0.00000000	     89.93473909	     -6.25523369	      7.42283361	     47.91561084	     69.82045138	      0.00000000	      0.00000000
      4.14500000	    -33.10634993	     -0.40507281	      3.78000880	     -0.38162921	      0.72277921	     -0.73624158	     81.56100285	     -1.28144604	     -8.39711910	     87.69485145	      1.53056389	     26.54295762	      0.00000000	      0.00000000	     36.22189573	     -7.31873971	      5.82083568	     96.13611801	      1.67789179	     -8.45701225	      0.00000000	      0.00000000	      1.26134655	      3.38465329	     -3.58089425	     89.95795979	     -4.24274094	      9.29695104	     52.21534016	     63.61381928	      0.00000000	      0.00000000	     89.93511344	     -6.36366252	      7.92037379	     48.07192737	     65.99708035	      0.00000000	      0.00000000
      4.15000000	    -33.13190119	     -0.36101339	      3.76546177	     -0.38152265	      0.72196856	     -0.73634091	     81.68388089	     -1.27092816	     -8.31128337	     87.87388660	      1.53368865	     26.58027946	      0.00000000	      0.00000000	     36.21300325	     -7.28390860	      5.80919694	     96.17042555	      1.67849057	     -8.33844544	      0.00000000	      0.00000000	      1.24476364	      3.36514443	     -3.58036505	     89.95810399	     -4.15981524	      8.22038398	     51.92978270	     73.71442137	      0.00000000	      0.00000000	     89.93537494	     -6.30016828	      6.72613134	     47.80605441	     76.58738708	      0.00000000	      0.00000000
      4.15500000	    -33.07520214	     -0.26105806	      3.74092277	     -0.38153350	      0.72115239	     -0.73639284	     81.75326129	     -1.24937452	     -8.16814288	     88.09226552	      1.53750008	     26.47396548	      0.00000000	      0.00000000	     36.15890704	     -7.34370765	      5.71759433	     96.23346620	      1.67959084	     -8.22140769	      0.00000000	      0.00000000	      1.16334359	      3.26590377	     -3.62038617	     89.95829445	     -4.02537991	      8.52803447	     52.01808290	     69.34471037	      0.00000000	      0.00000000	     89.93589172	     -6.18760317	      6.76748994	     47.81788363	     71.79688911	      0.00000000	      0.00000000
      4.16000000	    -33.19138030	     -0.38264238	      3.80863247	     -0.38170864	      0.72027498	     -0.73640536	     81.93251513	     -1.22252696	     -8.24075923	     88.19419381	      1.53927906	     26.74200941	      0.00000000	      0.00000000	     36.34428213	     -7.29638198	      5.93852403	     96.35669911	      1.68174166	     -8.29232511	      0.00000000	      0.00000000	      1.23964425	      3.38155676	     -3.68988723	     89.95838076	     -4.11072789	      8.24542645	     52.09867089	     73.37530965	      0.00000000	      0.00000000	     89.93613810	     -6.30043974	      6.59858120	     47.92771190	     76.65752598	      0.00000000	      0.00000000
      4.16500000	    -33.23012440	     -0.36750353	      3.78532708	     -0.38166753	      0.71941649	     -0.73642477	     82.05605418	     -1.17628545	     -8.19189191	     88.35126711	      1.54202051	     26.83260744	      0.00000000	      0.00000000	     36.43174246	     -7.43960913	      5.88498371	     96.42284356	      1.68289609	     -8.47373365	      0.00000000	      0.00000000	      1.25633693	      3.38455318	     -3.74052854	     89.95830648	     -4.02137306	      8.06636328	     52.16736859	     73.65952322	      0.00000000	      0.00000000	     89.93634423	     -6.38274789	      6.57125766	     47.98899709	     76.63365920	      0.00000000	      0.00000000
      4.17000000	    -33.23357321	     -0.35119145	      3.80829637	     -0.38169650	      0.71865027	     -0.73654116	     82.14159768	     -1.17570656	     -8.14691545	     88.50595747	      1.54472037	     26.94287187	      0.00000000	      0.00000000	     36.45353966	     -7.37620145	      5.94478793	     96.50653273	      1.68435675	     -8.44948826	      0.00000000	      0.00000000	      1.23408477	      3.36125271	     -3.75312423	     89.95857937	     -4.01191720	      8.13985043	     52.12947172	     73.41848307	      0.00000000	      0.00000000	     89.93664558	     -6.31628597	      6.50345744	     48.01128674	     76.62881495	      0.00000000	      0.00000000
      4.17500000	    -33.31136213	     -0.33802417	      3.84749143	     -0.38170987	      0.71778217	     -0.73658220	     82.30139388	     -1.18430625	     -8.09908611	     88.65294987	      1.54728587	     27.04327715	      0.00000000	      0.00000000	     36.56036703	     -7.33073100	      6.00860828	     96.60876905	      1.68614111	     -8.37583241	      0.00000000	      0.00000000	      1.29428755	      3.34701011	     -3.83663627	     89.95878415	     -3.96210067	      8.27686020	     52.13147122	     71.90090862	      0.00000000	      0.00000000	     89.93688776	     -6.43889412	      6.81554439	     48.14156183	     75.11617522	      0.00000000	      0.00000000
      4.18000000	    -33.34624759	     -0.40072861	      3.86765226	     -0.38172585	      0.71697948	     -0.73647871	     82.40496381	     -1.13483398	     -8.12425960	     88.77858390	      1.54947859	     27.14131653	      0.00000000	      0.00000000	     36.64028393	     -7.41456363	      6.07597663	     96.68123606	      1.68740589	     -8.40121625	      0.00000000	      0.00000000	      1.29630233	      3.38640539	     -3.84210752	     89.95882106	     -4.04804689	      8.20217338	     52.23068834	     73.11574144	      0.00000000	      0.00000000	     89.93719162	     -6.28775061	      6.43706652	     48.13070214	     76.38374051	      0.00000000	      0.00000000
      4.18500000	    -33.37457162	     -0.38838696	      3.89334060	     -0.38175428	      0.71612735	     -0.73658200	     82.52758175	     -1.14496139	     -8.08427880	     88.95482891	      1.55255465	     27.22801827	      0.00000000	      0.00000000	     36.68081565	     -7.41594820	      6.09504449	     96.76864991	      1.68893155	     -8.34144472	      0.00000000	      0.00000000	      1.31355060	      3.36115039	     -3.89796384	     89.95890740	     -4.01493447	      8.18418966	     52.03385062	     73.11587456	      0.00000000	      0.00000000	     89.93751515	     -6.24097365	      6.33182180	     48.17246391	     76.44735865	      0.00000000	      0.00000000
      4.19000000	    -33.40369733	     -0.32793106	      3.94603853	     -0.38177809	      0.71544916	     -0.73666014	     82.61312290	     -1.16876173	     -7.98625085	     89.06113848	      1.55441010	     27.40761635	      0.00000000	      0.00000000	     36.71371362	     -7.28775154	      6.15914809	     96.80933610	      1.68964166	     -8.25501156	      0.00000000	      0.00000000	      1.28964636	      3.28428646	     -3.94843133	     89.95898555	     -4.03997174	      8.64377868	     52.33696956	     67.52799886	      0.00000000	      0.00000000	     89.93790905	     -6.21177458	      6.82094652	     48.34051713	     70.44925863	      0.00000000	      0.00000000
      4.19500000	    -33.41991076	     -0.35838468	      3.95637489	     -0.38177245	      0.71457982	     -0.73659340	     82.72760690	     -1.11966146	     -7.96426594	     89.24618519	      1.55763978	     27.41313946	      0.00000000	      0.00000000	     36.78948202	     -7.31619110	      6.22070087	     96.90430743	      1.69129922	     -8.37912330	      0.00000000	      0.00000000	      1.28471701	      3.32078053	     -4.03327585	     89.95914188	     -3.95215127	      8.10125319	     52.32639606	     73.14480880	      0.00000000	      0.00000000	     89.93815829	     -6.33584894	      6.37972789	     48.23954621	     76.19745879	      0.00000000	      0.00000000
      4.20000000	    -33.49029820	     -0.35878397	      3.99334575	     -0.38173130	      0.71378684	     -0.73657346	     82.85902836	     -1.12100598	     -7.95029165	     89.36629404	      1.55973607	     27.57739163	      0.00000000	      0.00000000	     36.88632150	     -7.31666376	      6.25185388	     96.97477399	      1.69252910	     -8.39598985	      0.00000000	      0.00000000	      1.35025839	      3.28314004	     -4.08957512	     89.95933358	     -3.98969258	      8.35278142	     52.34501514	     70.48174681	      0.00000000	      0.00000000	     89.93827251	     -6.30880228	      6.62315552	     48.33213227	     73.44566414	      0.00000000	      0.00000000
      4.20500000	    -33.49139263	     -0.40699858	      4.03655193	     -0.38178633	      0.71302612	     -0.73657874	     82.92898869	     -1.10269964	     -7.96620794	     89.49827178	      1.56203952	     27.67400767	      0.00000000	      0.00000000	     36.96296108	     -7.34271442	      6.33951257	     97.06532916	      1.69410958	     -8.55818392	      0.00000000	      0.00000000	      1.34294284	      3.31732003	     -4.22286206	     89.95956842	     -3.92436588	      8.65241138	     52.32664755	     67.10566411	      0.00000000	      0.00000000	     89.93845795	     -6.43164779	      7.07628116	     48.49253677	     69.80049109	      0.00000000	      0.00000000
